<svg width="12" height="12" viewBox="0 0 12 12" fill="none" xmlns="http://www.w3.org/2000/svg">
<path d="M5.98364 0.597656C3.98612 0.597656 2.36108 2.20649 2.36108 4.18435C2.36108 6.08926 5.65628 10.8352 5.79668 11.0369L5.98352 11.3038L6.16928 11.0369C6.30968 10.8351 9.60608 6.08926 9.60608 4.18435C9.60608 2.20661 7.98116 0.597656 5.98364 0.597656ZM5.98364 1.04617C7.73096 1.04617 9.1532 2.45433 9.1532 4.18435C9.1532 5.70467 6.68912 9.46399 5.98364 10.5089C5.27816 9.46387 2.81408 5.70467 2.81408 4.18435C2.81408 2.45433 4.23524 1.04617 5.98364 1.04617Z" fill="#9A999A"/>
<path d="M5.99947 1.98145C4.82707 1.98145 3.87427 2.92481 3.87427 4.08442C3.87427 5.24521 4.82707 6.18857 5.99947 6.18857C7.17067 6.18857 8.12467 5.24521 8.12467 4.08442C8.12467 2.92481 7.17067 1.98145 5.99947 1.98145ZM5.99947 5.71333C5.09227 5.71333 4.35427 4.98263 4.35427 4.08442C4.35427 3.18739 5.09227 2.45669 5.99947 2.45669C6.90667 2.45669 7.64467 3.18739 7.64467 4.08442C7.64479 4.98263 6.90667 5.71333 5.99947 5.71333Z" fill="#9A999A"/>
</svg>
