<svg width="21" height="21" viewBox="0 0 21 21" fill="none" xmlns="http://www.w3.org/2000/svg">
<path d="M7.875 4.375C7.875 4.83913 8.05937 5.28425 8.38756 5.61244C8.71575 5.94063 9.16087 6.125 9.625 6.125C10.0891 6.125 10.5342 5.94063 10.8624 5.61244C11.1906 5.28425 11.375 4.83913 11.375 4.375C11.375 3.91087 11.1906 3.46575 10.8624 3.13756C10.5342 2.80937 10.0891 2.625 9.625 2.625C9.16087 2.625 8.71575 2.80937 8.38756 3.13756C8.05937 3.46575 7.875 3.91087 7.875 4.375Z" stroke="#F8F8F8" stroke-width="2" stroke-linecap="round" stroke-linejoin="round"/>
<path d="M9.62501 6.125V13.125H13.125L16.625 17.5M9.62501 9.625H14M6.12501 10.0625C5.49807 10.3221 4.94011 10.724 4.49525 11.2365C4.0504 11.7489 3.73083 12.3577 3.56182 13.0149C3.39281 13.6721 3.37899 14.3596 3.52145 15.0231C3.66391 15.6865 3.95875 16.3078 4.38265 16.8376C4.80655 17.3675 5.3479 17.7915 5.9639 18.0761C6.5799 18.3608 7.25367 18.4982 7.93193 18.4776C8.6102 18.4569 9.27436 18.2788 9.87193 17.9573C10.4695 17.6358 10.9841 17.1797 11.375 16.625" stroke="#F8F8F8" stroke-width="2" stroke-linecap="round" stroke-linejoin="round"/>
</svg>
