<svg width="23" height="30" viewBox="0 0 23 30" fill="none" xmlns="http://www.w3.org/2000/svg">
<path d="M11.5 13.3333C12.7997 13.3333 14.0702 12.9423 15.1509 12.2098C16.2316 11.4773 17.0738 10.4361 17.5712 9.21789C18.0686 7.99972 18.1987 6.65927 17.9452 5.36607C17.6916 4.07286 17.0657 2.88497 16.1467 1.95262C15.2277 1.02027 14.0568 0.385336 12.782 0.128101C11.5073 -0.129134 10.186 0.00288858 8.98522 0.507473C7.78445 1.01206 6.75813 1.86654 6.03606 2.96287C5.31398 4.05919 4.92857 5.34813 4.92857 6.66667C4.92857 8.43478 5.62092 10.1305 6.8533 11.3807C8.08568 12.631 9.75715 13.3333 11.5 13.3333ZM21.3571 30C21.7929 30 22.2107 29.8244 22.5188 29.5118C22.8269 29.1993 23 28.7754 23 28.3333C23 25.2391 21.7884 22.2717 19.6317 20.0838C17.4751 17.8958 14.55 16.6667 11.5 16.6667C8.45001 16.6667 5.52494 17.8958 3.36827 20.0838C1.2116 22.2717 4.54484e-08 25.2391 0 28.3333C0 28.7754 0.173087 29.1993 0.481182 29.5118C0.789277 29.8244 1.20714 30 1.64286 30H21.3571Z" fill="#4C31DD"/>
</svg>
