<svg width="24" height="28" viewBox="0 0 24 28" fill="none" xmlns="http://www.w3.org/2000/svg">
<path d="M12.0275 13.9933C15.8643 13.9933 18.9614 10.8682 18.9614 6.99667C18.9614 3.12518 15.8643 0 12.0275 0C8.19076 0 5.09363 3.12518 5.09363 6.99667C5.09363 10.8682 8.19076 13.9933 12.0275 13.9933ZM12.0275 0.932889C15.3558 0.932889 18.0369 3.63827 18.0369 6.99667C18.0369 10.3551 15.3558 13.0604 12.0275 13.0604C8.69925 13.0604 6.01815 10.3551 6.01815 6.99667C6.01815 3.63827 8.69925 0.932889 12.0275 0.932889Z" fill="#9290CD"/>
<path d="M1.30308 28H22.7057C23.0755 28 23.3991 27.8601 23.6302 27.5802C23.9075 27.3004 24 26.9272 24 26.5541C23.5377 19.6507 18.3604 14.4731 11.9813 14.4731C5.60209 14.4731 0.471019 19.6973 0.00875984 26.5541C-0.0374661 26.9272 0.101211 27.3004 0.378567 27.5802C0.609696 27.8601 0.979503 28 1.30308 28ZM12.0275 15.406C17.9444 15.406 22.7057 20.2104 23.1217 26.6007C23.1217 26.7406 23.0755 26.8339 23.0293 26.9272C22.9368 27.0205 22.8444 27.0671 22.7519 27.0671H1.30308C1.21063 27.0671 1.11818 27.0205 1.02573 26.9272C0.933278 26.8339 0.887052 26.7406 0.933278 26.6007C1.34931 20.2571 6.11058 15.406 12.0275 15.406Z" fill="#9290CD"/>
</svg>
