<svg width="20" height="20" viewBox="0 0 20 20" fill="none" xmlns="http://www.w3.org/2000/svg">
<path d="M2 4.35327L4.422 8.68243V11.3231L2.00283 15.6438L2 4.35327Z" fill="#5B57A2"/>
<path d="M11.2995 7.10725L13.569 5.71625L18.2136 5.71191L11.2995 9.94758V7.10725Z" fill="#D90751"/>
<path d="M11.2867 4.32783L11.2995 10.0595L8.87183 8.56782V0L11.2868 4.32783H11.2867Z" fill="#FAB718"/>
<path d="M18.2136 5.71183L13.5688 5.71616L11.2867 4.32783L8.87183 0L18.2135 5.71183H18.2136Z" fill="#ED6F26"/>
<path d="M11.2995 15.6677V12.8869L8.87183 11.4236L8.87316 19.9999L11.2995 15.6677Z" fill="#63B22F"/>
<path d="M13.5633 14.2894L4.42183 8.68243L2 4.35327L18.2038 14.2838L13.5632 14.2894H13.5633Z" fill="#1487C9"/>
<path d="M8.87337 20.0001L11.2994 15.6679L13.5632 14.2896L18.2037 14.2839L8.87337 20.0001Z" fill="#017F36"/>
<path d="M2.00285 15.6437L8.89168 11.4237L6.57568 10.0027L4.42202 11.323L2.00285 15.6437Z" fill="#984995"/>
</svg>
