<svg width="10" height="9" viewBox="0 0 10 9" fill="none" xmlns="http://www.w3.org/2000/svg">
<path d="M9.07185 8.45575L6.35133 5.78381C6.94259 5.08626 7.2373 4.19169 7.17417 3.28618C7.11103 2.38067 6.69491 1.53391 6.01235 0.922026C5.32979 0.310142 4.43334 -0.0197667 3.50944 0.000916966C2.58554 0.0216007 1.70533 0.391285 1.05186 1.03308C0.398399 1.67487 0.0219934 2.53937 0.000933638 3.44677C-0.0201261 4.35417 0.315781 5.23462 0.93879 5.90499C1.5618 6.57536 2.42395 6.98405 3.34593 7.04606C4.26791 7.10807 5.17874 6.81862 5.88897 6.23791L8.60949 8.90985C8.67116 8.96835 8.75376 9.00072 8.83949 8.99999C8.92523 8.99926 9.00724 8.96548 9.06786 8.90594C9.12849 8.84639 9.16288 8.76585 9.16362 8.68164C9.16437 8.59744 9.13141 8.51632 9.07185 8.45575ZM3.59713 6.41198C3.01735 6.41198 2.45059 6.24312 1.96852 5.92676C1.48645 5.61041 1.11073 5.16076 0.888853 4.63467C0.666981 4.10859 0.608929 3.52971 0.722038 2.97122C0.835148 2.41273 1.11434 1.89973 1.52431 1.49709C1.93427 1.09444 2.4566 0.820235 3.02524 0.709145C3.59388 0.598055 4.18329 0.65507 4.71894 0.872981C5.25459 1.09089 5.71241 1.45991 6.03452 1.93337C6.35663 2.40683 6.52856 2.96347 6.52856 3.5329C6.52769 4.29622 6.21857 5.02803 5.66901 5.56778C5.11945 6.10752 4.37433 6.41113 3.59713 6.41198Z" fill="#999999"/>
</svg>
