<svg width="20" height="16" viewBox="0 0 20 16" fill="none" xmlns="http://www.w3.org/2000/svg">
<path d="M4.29304 0.293C4.48057 0.105529 4.73488 0.000213623 5.00004 0.000213623C5.26521 0.000213623 5.51951 0.105529 5.70704 0.293L9.70704 4.293C9.8892 4.4816 9.98999 4.7342 9.98771 4.9964C9.98544 5.2586 9.88027 5.50941 9.69486 5.69482C9.50945 5.88023 9.25864 5.9854 8.99644 5.98767C8.73425 5.98995 8.48164 5.88916 8.29304 5.707L6.00004 3.414V15C6.00004 15.2652 5.89468 15.5196 5.70715 15.7071C5.51961 15.8946 5.26526 16 5.00004 16C4.73482 16 4.48047 15.8946 4.29293 15.7071C4.1054 15.5196 4.00004 15.2652 4.00004 15V3.414L1.70704 5.707C1.51844 5.88916 1.26584 5.98995 1.00364 5.98767C0.741443 5.9854 0.490631 5.88023 0.305222 5.69482C0.119814 5.50941 0.0146453 5.2586 0.0123669 4.9964C0.0100885 4.7342 0.110883 4.4816 0.293041 4.293L4.29304 0.293ZM14 12.586V1C14 0.734784 14.1054 0.48043 14.2929 0.292893C14.4805 0.105357 14.7348 0 15 0C15.2653 0 15.5196 0.105357 15.7071 0.292893C15.8947 0.48043 16 0.734784 16 1V12.586L18.293 10.293C18.4816 10.1108 18.7342 10.01 18.9964 10.0123C19.2586 10.0146 19.5095 10.1198 19.6949 10.3052C19.8803 10.4906 19.9854 10.7414 19.9877 11.0036C19.99 11.2658 19.8892 11.5184 19.707 11.707L15.707 15.707C15.5195 15.8945 15.2652 15.9998 15 15.9998C14.7349 15.9998 14.4806 15.8945 14.293 15.707L10.293 11.707C10.1109 11.5184 10.0101 11.2658 10.0124 11.0036C10.0146 10.7414 10.1198 10.4906 10.3052 10.3052C10.4906 10.1198 10.7414 10.0146 11.0036 10.0123C11.2658 10.01 11.5184 10.1108 11.707 10.293L14 12.586Z" fill="#4E3ADD"/>
</svg>
