<svg width="20" height="21" viewBox="0 0 20 21" fill="none" xmlns="http://www.w3.org/2000/svg">
<path d="M12.6043 14.3084L9.37165 12.1185L5.73525 13.5407L6.8113 9.78891L4.34192 6.7693L8.24457 6.64062L10.3501 3.35254L11.6813 7.02445L15.453 8.01176L12.3757 10.4101L12.6043 14.3084ZM9.55137 10.51L10.9935 11.4862L10.8914 9.74898L12.2648 8.67958L10.5808 8.23584L9.98845 6.59846L9.04995 8.065L7.31051 8.12269L8.41984 9.46943L7.92064 11.1334L9.55137 10.51Z" fill="white"/>
<path d="M0 20.9199V9.78436C0.00293613 7.19028 1.03473 4.7033 2.86901 2.86901C4.7033 1.03473 7.19028 0.00293613 9.78436 0C12.4112 0.00352203 14.9294 1.04859 16.7869 2.90605C18.6444 4.76351 19.6894 7.28176 19.693 9.9086C19.6906 12.0923 18.8222 14.186 17.2783 15.7303C15.7344 17.2747 13.641 18.1436 11.4572 18.1465H6.53622V16.5935H11.4572C13.2292 16.5911 14.928 15.886 16.1808 14.6328C17.4336 13.3796 18.1381 11.6806 18.1399 9.9086C18.1369 7.69348 17.2557 5.56992 15.6894 4.00359C14.123 2.43726 11.9995 1.55601 9.78436 1.55307C7.60201 1.55542 5.50971 2.4234 3.96655 3.96655C2.4234 5.50971 1.55542 7.602 1.55307 9.78436V18.2375L4.17776 16.7222L4.94986 18.0689L0 20.9199Z" fill="white"/>
</svg>
