<svg width="15" height="19" viewBox="0 0 15 19" fill="none" xmlns="http://www.w3.org/2000/svg">
<path d="M9.29694 0.000580149C9.18665 0.00803556 9.08008 0.0326123 8.98489 0.0725419C8.8897 0.112471 8.80826 0.166761 8.74644 0.231504L0.125876 9.20456C0.043798 9.29127 0 9.39314 0 9.49734C0 9.60154 0.043798 9.70341 0.125876 9.79012L7.21208 17.1632C7.26249 17.227 7.33113 17.2827 7.41366 17.3268C7.49619 17.3709 7.59082 17.4025 7.69158 17.4196C7.79233 17.4367 7.89702 17.4389 7.99904 17.426C8.10105 17.4132 8.19818 17.3856 8.28428 17.345C8.37039 17.3044 8.4436 17.2516 8.49929 17.1901C8.55499 17.1286 8.59196 17.0596 8.60787 16.9875C8.62379 16.9153 8.61829 16.8417 8.59175 16.7712C8.5652 16.7006 8.51817 16.6347 8.45362 16.5776L1.64853 9.49321L9.75374 1.05623H14.2397C14.339 1.05722 14.4377 1.0443 14.5298 1.01822C14.622 0.992137 14.7059 0.953415 14.7767 0.904304C14.8474 0.855192 14.9036 0.796671 14.9419 0.73214C14.9803 0.66761 15 0.598357 15 0.528407C15 0.458457 14.9803 0.389204 14.9419 0.324674C14.9036 0.260143 14.8474 0.201622 14.7767 0.152511C14.7059 0.103399 14.622 0.0646773 14.5298 0.0385953C14.4377 0.0125133 14.339 -0.000408774 14.2397 0.000580149H9.36722C9.3438 -0.000193383 9.32035 -0.000193383 9.29694 0.000580149ZM12.3774 1.83973C12.2682 1.8493 12.1632 1.87569 12.0701 1.91702C11.977 1.95836 11.898 2.01362 11.8386 2.0789L4.99837 9.20456C4.91629 9.29127 4.87249 9.39314 4.87249 9.49734C4.87249 9.60154 4.91629 9.70341 4.99837 9.79012L12.8342 17.9467H9.36722C9.26788 17.9457 9.16926 17.9586 9.07709 17.9847C8.98491 18.0108 8.90101 18.0495 8.83027 18.0986C8.75953 18.1477 8.70335 18.2063 8.66501 18.2708C8.62667 18.3353 8.60693 18.4046 8.60693 18.4745C8.60693 18.5445 8.62667 18.6137 8.66501 18.6783C8.70335 18.7428 8.75953 18.8013 8.83027 18.8504C8.90101 18.8995 8.98491 18.9382 9.07709 18.9643C9.16926 18.9904 9.26788 19.0033 9.36722 19.0023H14.2397C14.3761 19.0025 14.5099 18.9764 14.6267 18.9269C14.7436 18.8775 14.8391 18.8065 14.903 18.7217C14.9668 18.6368 14.9966 18.5413 14.9891 18.4455C14.9816 18.3496 14.9372 18.257 14.8605 18.1776L6.52102 9.50146L13.0919 2.66446C13.1749 2.58041 13.2214 2.48118 13.2258 2.37884C13.2302 2.27651 13.1922 2.17548 13.1165 2.08808C13.0408 2.00067 12.9306 1.93066 12.7993 1.88656C12.6681 1.84247 12.5215 1.8262 12.3774 1.83973Z" fill="#9F9E9F"/>
</svg>
