<svg width="20" height="16" viewBox="0 0 20 16" fill="none" xmlns="http://www.w3.org/2000/svg">
<path d="M6.32955 0C5.02298 0 3.95455 1.04142 3.95455 2.31494C3.95455 3.58845 5.02298 4.62987 6.32955 4.62987C7.48912 4.62987 8.46016 3.81052 8.66406 2.73583H16.1534C17.5364 2.73583 18.6364 3.80794 18.6364 5.15599C18.6364 6.5228 17.6444 7.57615 16.2614 7.57615C16.2041 7.57536 16.1473 7.58567 16.0942 7.60647C16.0411 7.62726 15.9928 7.65814 15.9521 7.6973C15.9113 7.73647 15.8789 7.78313 15.8569 7.83459C15.8348 7.88605 15.8234 7.94127 15.8234 7.99705C15.8234 8.05283 15.8348 8.10805 15.8569 8.15951C15.8789 8.21097 15.9113 8.25763 15.9521 8.29679C15.9928 8.33596 16.0411 8.36683 16.0942 8.38763C16.1473 8.40843 16.2041 8.41873 16.2614 8.41795C18.1079 8.41795 19.5 6.93708 19.5 5.15599C19.5 3.35615 18 1.89404 16.1534 1.89404H8.66406C8.46016 0.819345 7.48912 0 6.32955 0ZM6.32955 0.841795C7.16936 0.841795 7.84091 1.49636 7.84091 2.31494C7.84091 3.13351 7.16936 3.78808 6.32955 3.78808C5.48973 3.78808 4.81818 3.13351 4.81818 2.31494C4.81818 1.49636 5.48973 0.841795 6.32955 0.841795ZM3.84659 7.57615C2.00005 7.57615 0.5 9.03826 0.5 10.8381C0.5 12.6379 2.00005 14.1001 3.84659 14.1001H8.96094L7.7532 15.2773C7.71202 15.3163 7.67925 15.3629 7.65679 15.4144C7.63433 15.4659 7.62263 15.5213 7.62239 15.5773C7.62214 15.6332 7.63335 15.6887 7.65536 15.7404C7.67737 15.7921 7.70974 15.839 7.75057 15.8783C7.7914 15.9177 7.83987 15.9487 7.89315 15.9696C7.94643 15.9905 8.00344 16.0008 8.06086 16C8.11828 15.9991 8.17494 15.9871 8.22754 15.9646C8.28014 15.9422 8.32761 15.9097 8.36719 15.8691L10.3036 13.9817C10.3442 13.9425 10.3764 13.8959 10.3984 13.8446C10.4204 13.7932 10.4317 13.7381 10.4317 13.6825C10.4317 13.6268 10.4204 13.5717 10.3984 13.5203C10.3764 13.469 10.3442 13.4224 10.3036 13.3832L8.36044 11.4892C8.35201 11.4778 8.34301 11.4668 8.33345 11.4563C8.29136 11.4187 8.2421 11.3896 8.18846 11.3706C8.13483 11.3516 8.07788 11.3431 8.02087 11.3455C7.96385 11.3479 7.90789 11.3613 7.85617 11.3848C7.80446 11.4084 7.758 11.4416 7.71946 11.4826C7.68092 11.5236 7.65104 11.5716 7.63154 11.6239C7.61203 11.6762 7.60329 11.7317 7.60579 11.7873C7.6083 11.8429 7.62201 11.8974 7.64614 11.9478C7.67028 11.9982 7.70436 12.0435 7.74645 12.0811L8.96094 13.2583H3.84659C2.46356 13.2583 1.36364 12.1862 1.36364 10.8381C1.36364 9.49006 2.46356 8.41795 3.84659 8.41795H14.5341C14.5913 8.41873 14.6481 8.40843 14.7012 8.38763C14.7543 8.36683 14.8027 8.33596 14.8434 8.29679C14.8842 8.25763 14.9165 8.21097 14.9386 8.15951C14.9607 8.10805 14.9721 8.05283 14.9721 7.99705C14.9721 7.94127 14.9607 7.88605 14.9386 7.83459C14.9165 7.78313 14.8842 7.73647 14.8434 7.6973C14.8027 7.65814 14.7543 7.62726 14.7012 7.60647C14.6481 7.58567 14.5913 7.57536 14.5341 7.57615H3.84659ZM13.6705 11.3642C12.3639 11.3642 11.2955 12.4056 11.2955 13.6792C11.2955 14.9527 12.3639 15.9941 13.6705 15.9941C14.977 15.9941 16.0455 14.9527 16.0455 13.6792C16.0455 12.4056 14.977 11.3642 13.6705 11.3642ZM13.6705 12.206C14.5103 12.206 15.1818 12.8606 15.1818 13.6792C15.1818 14.4977 14.5103 15.1523 13.6705 15.1523C12.8306 15.1523 12.1591 14.4977 12.1591 13.6792C12.1591 12.8606 12.8306 12.206 13.6705 12.206Z" fill="#5457DB"/>
</svg>
