<svg width="19" height="16" viewBox="0 0 19 16" fill="none" xmlns="http://www.w3.org/2000/svg">
<path d="M5.82955 0C4.52298 0 3.45455 1.04142 3.45455 2.31494C3.45455 3.58845 4.52298 4.62987 5.82955 4.62987C6.98912 4.62987 7.96016 3.81052 8.16406 2.73583H15.6534C17.0364 2.73583 18.1364 3.80794 18.1364 5.15599C18.1364 6.5228 17.1444 7.57615 15.7614 7.57615C15.7041 7.57536 15.6473 7.58567 15.5942 7.60647C15.5411 7.62726 15.4928 7.65814 15.4521 7.6973C15.4113 7.73647 15.3789 7.78313 15.3569 7.83459C15.3348 7.88605 15.3234 7.94127 15.3234 7.99705C15.3234 8.05283 15.3348 8.10805 15.3569 8.15951C15.3789 8.21097 15.4113 8.25763 15.4521 8.29679C15.4928 8.33596 15.5411 8.36683 15.5942 8.38763C15.6473 8.40843 15.7041 8.41873 15.7614 8.41795C17.6079 8.41795 19 6.93708 19 5.15599C19 3.35615 17.5 1.89404 15.6534 1.89404H8.16406C7.96016 0.819345 6.98912 0 5.82955 0ZM5.82955 0.841795C6.66936 0.841795 7.34091 1.49636 7.34091 2.31494C7.34091 3.13351 6.66936 3.78808 5.82955 3.78808C4.98973 3.78808 4.31818 3.13351 4.31818 2.31494C4.31818 1.49636 4.98973 0.841795 5.82955 0.841795ZM3.34659 7.57615C1.50005 7.57615 0 9.03826 0 10.8381C0 12.6379 1.50005 14.1001 3.34659 14.1001H8.46094L7.2532 15.2773C7.21202 15.3163 7.17925 15.3629 7.15679 15.4144C7.13433 15.4659 7.12263 15.5213 7.12239 15.5773C7.12214 15.6332 7.13335 15.6887 7.15536 15.7404C7.17737 15.7921 7.20974 15.839 7.25057 15.8783C7.2914 15.9177 7.33987 15.9487 7.39315 15.9696C7.44643 15.9905 7.50344 16.0008 7.56086 16C7.61828 15.9991 7.67494 15.9871 7.72754 15.9646C7.78014 15.9422 7.82761 15.9097 7.86719 15.8691L9.80362 13.9817C9.84421 13.9425 9.87644 13.8959 9.89843 13.8446C9.92042 13.7932 9.93174 13.7381 9.93174 13.6825C9.93174 13.6268 9.92042 13.5717 9.89843 13.5203C9.87644 13.469 9.84421 13.4224 9.80362 13.3832L7.86044 11.4892C7.85201 11.4778 7.84301 11.4668 7.83345 11.4563C7.79136 11.4187 7.7421 11.3896 7.68846 11.3706C7.63483 11.3516 7.57788 11.3431 7.52087 11.3455C7.46385 11.3479 7.40789 11.3613 7.35617 11.3848C7.30446 11.4084 7.258 11.4416 7.21946 11.4826C7.18092 11.5236 7.15104 11.5716 7.13154 11.6239C7.11203 11.6762 7.10329 11.7317 7.10579 11.7873C7.1083 11.8429 7.12201 11.8974 7.14614 11.9478C7.17028 11.9982 7.20436 12.0435 7.24645 12.0811L8.46094 13.2583H3.34659C1.96356 13.2583 0.863636 12.1862 0.863636 10.8381C0.863636 9.49006 1.96356 8.41795 3.34659 8.41795H14.0341C14.0913 8.41873 14.1481 8.40843 14.2012 8.38763C14.2543 8.36683 14.3027 8.33596 14.3434 8.29679C14.3842 8.25763 14.4165 8.21097 14.4386 8.15951C14.4607 8.10805 14.4721 8.05283 14.4721 7.99705C14.4721 7.94127 14.4607 7.88605 14.4386 7.83459C14.4165 7.78313 14.3842 7.73647 14.3434 7.6973C14.3027 7.65814 14.2543 7.62726 14.2012 7.60647C14.1481 7.58567 14.0913 7.57536 14.0341 7.57615H3.34659ZM13.1705 11.3642C11.8639 11.3642 10.7955 12.4056 10.7955 13.6792C10.7955 14.9527 11.8639 15.9941 13.1705 15.9941C14.477 15.9941 15.5455 14.9527 15.5455 13.6792C15.5455 12.4056 14.477 11.3642 13.1705 11.3642ZM13.1705 12.206C14.0103 12.206 14.6818 12.8606 14.6818 13.6792C14.6818 14.4977 14.0103 15.1523 13.1705 15.1523C12.3306 15.1523 11.6591 14.4977 11.6591 13.6792C11.6591 12.8606 12.3306 12.206 13.1705 12.206Z" fill="#FCFCFD"/>
</svg>
