<svg width="5" height="5" viewBox="0 0 5 5" fill="none" xmlns="http://www.w3.org/2000/svg">
<path d="M4.86049 0.139468C4.67447 -0.0464893 4.36658 -0.0464893 4.18056 0.139468L2.5 1.81949L0.819435 0.139468C0.633419 -0.0464893 0.325529 -0.0464893 0.139513 0.139468C-0.0465042 0.325425 -0.0465042 0.633216 0.139513 0.819173L1.82008 2.4992L0.139513 4.17922C-0.0465042 4.36518 -0.0465042 4.67297 0.139513 4.85893C0.235728 4.95511 0.357601 5 0.479474 5C0.601347 5 0.72322 4.95511 0.819435 4.85893L2.5 3.1789L4.18056 4.85893C4.27678 4.95511 4.39865 5 4.52053 5C4.6424 5 4.76427 4.95511 4.86049 4.85893C5.0465 4.67297 5.0465 4.36518 4.86049 4.17922L3.17992 2.4992L4.86049 0.819173C5.0465 0.633216 5.0465 0.325425 4.86049 0.139468Z" fill="#9A999A"/>
</svg>
