<svg width="21" height="30" viewBox="0 0 21 30" fill="none" xmlns="http://www.w3.org/2000/svg">
<path d="M10.5 0C4.70119 0 0 4.74263 0 10.5926C0 15.4595 7.26288 25.103 9.7055 28.2088C6.20173 28.2595 3.47736 28.6393 3.47736 29.1012C3.47736 29.5978 6.62141 30 10.5 30C14.3786 30 17.5226 29.5978 17.5226 29.1012C17.5226 28.6393 14.7983 28.2591 11.2945 28.2088C13.7371 25.1034 21 15.4595 21 10.5926C21 4.74263 16.2988 0 10.5 0ZM10.5 15.2358C7.59409 15.2358 5.23868 12.8596 5.23868 9.9281C5.23868 6.99657 7.59409 4.62039 10.5 4.62039C13.4059 4.62039 15.7613 6.99657 15.7613 9.9281C15.7613 12.8596 13.4059 15.2358 10.5 15.2358Z" fill="#514CDB"/>
</svg>
