<svg width="21" height="30" viewBox="0 0 21 30" fill="none" xmlns="http://www.w3.org/2000/svg">
<path d="M9.71274 28.7087L10.4967 28.6974L11.2873 28.7087C13.0261 28.7337 14.5607 28.8405 15.6521 28.9957C15.8893 29.0294 16.1017 29.0649 16.2881 29.1014C16.0372 29.1506 15.7408 29.1975 15.4023 29.2409C14.1584 29.4 12.425 29.5 10.5 29.5C8.57505 29.5 6.84159 29.4 5.59767 29.2409C5.25937 29.1976 4.96299 29.1506 4.71217 29.1015C4.89853 29.065 5.11081 29.0295 5.34786 28.9959C6.43929 28.8407 7.97388 28.7339 9.71274 28.7087ZM10.5 28.4101L10.0985 27.8997C8.88179 26.3526 6.46822 23.1817 4.36125 19.7969C3.30754 18.1041 2.33668 16.3676 1.63077 14.7605C0.919787 13.1419 0.5 11.7037 0.5 10.5926C0.5 5.01463 4.98146 0.5 10.5 0.5C16.0185 0.5 20.5 5.01463 20.5 10.5926C20.5 11.7037 20.0802 13.1419 19.3692 14.7606C18.6633 16.3677 17.6925 18.1042 16.6388 19.7971C14.5318 23.182 12.1182 26.3528 10.9015 27.8997L10.5 28.4101ZM17.1293 29.3544C17.129 29.3544 17.1264 29.3526 17.1221 29.3488C17.1274 29.3525 17.1296 29.3544 17.1293 29.3544ZM17.1215 28.8542C17.1276 28.8488 17.1316 28.8462 17.132 28.8463C17.1324 28.8463 17.1293 28.849 17.1215 28.8542ZM3.868 28.8463C3.86843 28.8462 3.87237 28.8488 3.87853 28.8542C3.87065 28.849 3.86757 28.8463 3.868 28.8463ZM3.8779 29.3489C3.87357 29.3526 3.87091 29.3545 3.87066 29.3544C3.87041 29.3544 3.87258 29.3525 3.8779 29.3489ZM4.73868 9.9281C4.73868 13.1316 7.31382 15.7358 10.5 15.7358C13.6862 15.7358 16.2613 13.1316 16.2613 9.9281C16.2613 6.72458 13.6862 4.12039 10.5 4.12039C7.31382 4.12039 4.73868 6.72458 4.73868 9.9281Z" stroke="#9290CD"/>
</svg>
