<svg width="16" height="16" viewBox="0 0 16 16" fill="none" xmlns="http://www.w3.org/2000/svg">
<path d="M6.70038 9.2996L9.44975 15.7148C9.5241 15.8882 9.69445 16 9.88231 16C9.88589 16 9.88947 16 9.89323 16C10.0854 15.9955 10.2556 15.8746 10.323 15.6947L15.97 0.635916C16.0348 0.463117 15.9926 0.268294 15.8622 0.137848C15.7317 0.0072128 15.5369 -0.0347636 15.3641 0.0299891L0.305251 5.67703C0.125297 5.74441 0.00444983 5.91458 0.000120406 6.10677C-0.00420902 6.29895 0.108544 6.47439 0.285298 6.55006L6.70038 9.2996ZM14.7252 1.27478L9.85333 14.2667L7.6169 9.04868L11.6269 5.03872C11.8108 4.85501 11.8108 4.55703 11.6269 4.37331C11.443 4.18941 11.1452 4.18941 10.9615 4.37331L6.95129 8.38327L1.73302 6.14686L14.7252 1.27478Z" fill="#FCFCFD"/>
</svg>
