<svg width="20" height="16" viewBox="0 0 20 16" fill="none" xmlns="http://www.w3.org/2000/svg">
<g clip-path="url(#clip0_165_3013)">
<path d="M3.63593 15.9205V14.8616C3.63593 14.4555 3.39578 14.1908 2.98414 14.1908C2.77836 14.1908 2.55539 14.2614 2.40101 14.4909C2.28101 14.2967 2.10953 14.1908 1.85226 14.1908C1.6807 14.1908 1.50929 14.2437 1.37203 14.4379V14.2261H1.01187V15.9205H1.37203V14.985C1.37203 14.6851 1.5264 14.5438 1.76656 14.5438C2.00656 14.5438 2.12672 14.7027 2.12672 14.985V15.9205H2.48687V14.985C2.48687 14.6851 2.65828 14.5438 2.88125 14.5438C3.1214 14.5438 3.2414 14.7027 3.2414 14.985V15.9205H3.63593ZM8.96961 14.2261H8.38656V13.7143H8.0264V14.2261H7.70054V14.5614H8.02632V15.3381C8.02632 15.7264 8.1807 15.9558 8.59234 15.9558C8.74672 15.9558 8.91812 15.9029 9.03828 15.8323L8.93531 15.5146C8.83242 15.5852 8.71242 15.6029 8.62664 15.6029C8.45515 15.6029 8.38656 15.497 8.38656 15.3204V14.5614H8.96961V14.2261ZM12.0224 14.1908C11.8166 14.1908 11.6795 14.2967 11.5937 14.4379V14.2261H11.2335V15.9205H11.5937V14.9674C11.5937 14.6851 11.7137 14.5262 11.9366 14.5262C12.0052 14.5262 12.091 14.5439 12.1596 14.5615L12.2625 14.2085C12.1939 14.1908 12.091 14.1908 12.0224 14.1908V14.1908ZM7.40898 14.3673C7.23742 14.2437 6.99734 14.1908 6.74007 14.1908C6.32851 14.1908 6.05414 14.4026 6.05414 14.738C6.05414 15.0204 6.25992 15.1792 6.62007 15.2322L6.79156 15.2499C6.98023 15.2851 7.08312 15.3381 7.08312 15.4264C7.08312 15.5499 6.94593 15.6382 6.70578 15.6382C6.4657 15.6382 6.27703 15.5499 6.15695 15.4617L5.98547 15.744C6.17414 15.8852 6.4314 15.9558 6.68859 15.9558C7.16882 15.9558 7.44328 15.7264 7.44328 15.4087C7.44328 15.1086 7.22031 14.9498 6.87726 14.8968L6.70578 14.8792C6.5514 14.8615 6.4314 14.8263 6.4314 14.7204C6.4314 14.5968 6.5514 14.5262 6.74007 14.5262C6.94593 14.5262 7.15171 14.6144 7.25461 14.6674L7.40898 14.3673ZM16.9789 14.1908C16.773 14.1908 16.6359 14.2967 16.5501 14.4379V14.2261H16.1899V15.9205H16.5501V14.9674C16.5501 14.6851 16.6702 14.5262 16.893 14.5262C16.9617 14.5262 17.0475 14.5439 17.1161 14.5615L17.219 14.2085C17.1504 14.1908 17.0475 14.1908 16.9789 14.1908ZM12.3826 15.0733C12.3826 15.5852 12.7255 15.9558 13.2573 15.9558C13.4973 15.9558 13.6688 15.9029 13.8403 15.7617L13.6688 15.4617C13.5316 15.5676 13.3945 15.6205 13.2401 15.6205C12.9485 15.6205 12.7427 15.4087 12.7427 15.0733C12.7427 14.7557 12.9485 14.5438 13.2401 14.5262C13.3945 14.5262 13.5316 14.5791 13.6688 14.6851L13.8403 14.385C13.6688 14.2437 13.4973 14.1908 13.2573 14.1908C12.7255 14.1908 12.3826 14.5615 12.3826 15.0733ZM15.7098 15.0733V14.2261H15.3496V14.4379C15.2295 14.2791 15.058 14.1908 14.8351 14.1908C14.372 14.1908 14.0119 14.5615 14.0119 15.0733C14.0119 15.5852 14.372 15.9558 14.8351 15.9558C15.0752 15.9558 15.2467 15.8676 15.3496 15.7087V15.9205H15.7098V15.0733ZM14.3891 15.0733C14.3891 14.7733 14.5778 14.5262 14.8865 14.5262C15.178 14.5262 15.3839 14.7557 15.3839 15.0733C15.3839 15.3734 15.178 15.6205 14.8865 15.6205C14.5778 15.6028 14.3891 15.3734 14.3891 15.0733ZM10.0844 14.1908C9.60421 14.1908 9.26117 14.5438 9.26117 15.0733C9.26117 15.6029 9.60414 15.9558 10.1016 15.9558C10.3416 15.9558 10.5818 15.8852 10.7705 15.7264L10.5989 15.4617C10.4617 15.5676 10.2902 15.6382 10.1187 15.6382C9.89578 15.6382 9.67281 15.5323 9.62132 15.2321H10.8391V15.091C10.8562 14.5438 10.5476 14.1908 10.0844 14.1908ZM10.0844 14.5085C10.3073 14.5085 10.4618 14.6498 10.496 14.9145H9.63851C9.67281 14.6851 9.82718 14.5085 10.0844 14.5085ZM19.0198 15.0733V13.5554H18.6596V14.4379C18.5395 14.2791 18.368 14.1908 18.1451 14.1908C17.682 14.1908 17.3219 14.5615 17.3219 15.0733C17.3219 15.5852 17.682 15.9558 18.1451 15.9558C18.3852 15.9558 18.5567 15.8676 18.6596 15.7087V15.9205H19.0198V15.0733ZM17.6992 15.0733C17.6992 14.7733 17.8878 14.5262 18.1966 14.5262C18.4881 14.5262 18.6939 14.7557 18.6939 15.0733C18.6939 15.3734 18.4881 15.6205 18.1966 15.6205C17.8878 15.6028 17.6992 15.3734 17.6992 15.0733ZM5.65961 15.0733V14.2261H5.29945V14.4379C5.17937 14.2791 5.00789 14.1908 4.78492 14.1908C4.32187 14.1908 3.96171 14.5615 3.96171 15.0733C3.96171 15.5852 4.32187 15.9558 4.78492 15.9558C5.02507 15.9558 5.19656 15.8676 5.29945 15.7087V15.9205H5.65961V15.0733ZM4.32187 15.0733C4.32187 14.7733 4.51054 14.5262 4.81922 14.5262C5.11078 14.5262 5.31664 14.7557 5.31664 15.0733C5.31664 15.3734 5.11078 15.6205 4.81922 15.6205C4.51054 15.6028 4.32187 15.3734 4.32187 15.0733Z" fill="black"/>
<path d="M7.28891 1.35913H12.6913V11.3492H7.28891V1.35913Z" fill="#FF5F00"/>
<path d="M7.63195 6.35409C7.63195 4.32434 8.55805 2.52398 9.98148 1.35904C8.93539 0.511839 7.61484 0 6.17422 0C2.76117 0 0 2.84165 0 6.35409C0 9.86645 2.76117 12.7082 6.17414 12.7082C7.61477 12.7082 8.93531 12.1963 9.98148 11.3491C8.55805 10.2018 7.63195 8.38384 7.63195 6.35409Z" fill="#EB001B"/>
<path d="M19.9802 6.35409C19.9802 9.86645 17.219 12.7082 13.806 12.7082C12.3654 12.7082 11.0448 12.1963 9.99867 11.3491C11.4393 10.1842 12.3483 8.38384 12.3483 6.35409C12.3483 4.32434 11.4221 2.52398 9.99867 1.35904C11.0448 0.511839 12.3654 0 13.806 0C17.219 0 19.9802 2.85934 19.9802 6.35409Z" fill="#F79E1B"/>
</g>
<defs>
<clipPath id="clip0_165_3013">
<rect width="20" height="16" fill="white"/>
</clipPath>
</defs>
</svg>
