<svg width="11" height="9" viewBox="0 0 11 9" fill="none" xmlns="http://www.w3.org/2000/svg">
<path d="M5.03976 1.39946L8.285 4.29609L5.03976 7.19186C4.68369 7.51223 4.68369 8.03057 5.03976 8.35094C5.39965 8.67088 5.98102 8.67088 6.34091 8.35094L10.2329 4.87499C10.589 4.55462 10.589 4.03584 10.2329 3.71634L6.34091 0.239954C5.98102 -0.080414 5.39965 -0.0795551 5.03976 0.239954C4.68369 0.560752 4.68369 1.0791 5.03976 1.39946Z" fill="#5047DB"/>
<path d="M4.55021 4.87523C4.84689 4.55485 4.84689 4.03605 4.55021 3.71652L1.30702 0.239966C1.00716 -0.080418 0.52237 -0.0795591 0.222509 0.239966C-0.0741698 0.56035 -0.0741698 1.07872 0.222509 1.3991L2.92682 4.29588L0.222509 7.19179C-0.0741698 7.51217 -0.0741698 8.03054 0.222509 8.35093C0.52237 8.67088 1.00716 8.67088 1.30702 8.35093L4.55021 4.87523Z" fill="#5047DB"/>
</svg>
